<?xml version="1.0" encoding="UTF-8" standalone="no"?>
<!-- Generator: Adobe Illustrator 14.0.0, SVG Export Plug-In . SVG Version: 6.00 Build 43363)  -->

<svg
   xmlns:dc="http://purl.org/dc/elements/1.1/"
   xmlns:cc="http://creativecommons.org/ns#"
   xmlns:rdf="http://www.w3.org/1999/02/22-rdf-syntax-ns#"
   xmlns:svg="http://www.w3.org/2000/svg"
   xmlns="http://www.w3.org/2000/svg"
   xmlns:sodipodi="http://sodipodi.sourceforge.net/DTD/sodipodi-0.dtd"
   xmlns:inkscape="http://www.inkscape.org/namespaces/inkscape"
   id="Layer_1"
   xml:space="preserve"
   viewBox="0 0 84.047 100"
   version="1.0"
   sodipodi:docname="head-gear.svg"
   inkscape:version="0.92.3 (2405546, 2018-03-11)"
   inkscape:export-filename="/home/ale/src/cpp-introduction-to-programming/images/important.png"
   inkscape:export-xdpi="225.75999"
   inkscape:export-ydpi="225.75999"><defs
   id="defs15" /><sodipodi:namedview
   pagecolor="#ffffff"
   bordercolor="#666666"
   borderopacity="1"
   objecttolerance="10"
   gridtolerance="10"
   guidetolerance="10"
   inkscape:pageopacity="0"
   inkscape:pageshadow="2"
   inkscape:window-width="2078"
   inkscape:window-height="1776"
   id="namedview13"
   showgrid="false"
   inkscape:zoom="5.188838"
   inkscape:cx="27.987215"
   inkscape:cy="50"
   inkscape:window-x="0"
   inkscape:window-y="22"
   inkscape:window-maximized="0"
   inkscape:current-layer="Layer_1" />



<g
   id="g21"
   transform="matrix(-1,0,0,1,84.047,0)"><path
     style="fill:none;stroke:#000000"
     id="path2"
     d="m 58.224,24.481 c -2.201,0 -3.994,1.787 -3.994,4.006 0,2.215 1.793,4.001 3.994,4.001 2.208,0 3.994,-1.786 3.994,-4.001 0,-2.219 -1.786,-4.006 -3.994,-4.006 z"
     inkscape:connector-curvature="0" /><path
     style="fill:none;stroke:#000000"
     id="path4"
     d="m 57.285,57.296 c 0,2.215 1.8,4.005 4.012,4.005 2.201,0 3.987,-1.79 3.987,-4.005 0,-2.213 -1.786,-4.003 -3.987,-4.003 -2.213,0 -4.012,1.79 -4.012,4.003 z"
     inkscape:connector-curvature="0" /><path
     style="fill:none;stroke:#000000"
     id="path6"
     d="m 28.045,20.137 c -2.215,0 -4.008,1.794 -4.008,4.012 0,2.212 1.793,4.002 4.008,4.002 2.219,0 4.009,-1.791 4.009,-4.002 0,-2.218 -1.79,-4.012 -4.009,-4.012 z"
     inkscape:connector-curvature="0" /><path
     style="fill:none;stroke:#000000"
     id="path8"
     d="M 46.116,0 C 28.899,0 13.021,12.924 9.721,27.167 8.974,30.333 8.156,38.602 8.156,38.602 L 0.228,58.564 C 0.076,58.923 0,59.328 0,59.753 c 0,1.683 1.379,3.058 3.069,3.058 h 5.087 v 10.605 c 0,8.27 6.7,14.968 14.959,14.968 h 5.946 V 100 H 69.547 V 67.794 c 8.83,-6.946 14.5,-17.736 14.5,-29.842 C 84.047,16.989 67.06,0 46.116,0 Z M 17.475,46.167 c -2.321,0 -4.219,-1.897 -4.219,-4.244 0,-2.333 1.897,-4.227 4.219,-4.227 2.343,0 4.25,1.894 4.25,4.227 0,2.348 -1.907,4.244 -4.25,4.244 z m 55.995,-5.733 -3.946,3.947 -4.813,-3.398 c -0.927,0.484 -1.901,0.868 -2.917,1.127 l -0.888,5.236 h 1.838 l 0.491,2.799 c 0.193,0.052 0.387,0.08 0.577,0.149 0.494,0.183 0.95,0.418 1.375,0.688 l 2.219,-1.559 1.82,1.818 -1.634,2.319 c 0.353,0.622 0.629,1.285 0.784,1.986 l 2.678,0.46 v 2.575 l -2.788,0.48 c -0.056,0.196 -0.083,0.394 -0.152,0.587 -0.183,0.498 -0.421,0.958 -0.697,1.39 l 1.567,2.208 -1.823,1.821 -2.306,-1.638 c -0.625,0.353 -1.285,0.629 -1.99,0.784 l -0.47,2.682 h -2.574 l -0.464,-2.799 c -0.2,-0.056 -0.4,-0.083 -0.598,-0.156 -0.494,-0.183 -0.953,-0.418 -1.382,-0.69 l -2.222,1.575 -1.811,-1.824 1.638,-2.315 c -0.353,-0.626 -0.629,-1.285 -0.784,-1.99 l -2.692,-0.467 v -2.564 l 2.813,-0.48 c 0.055,-0.197 0.083,-0.395 0.155,-0.591 0.18,-0.491 0.414,-0.947 0.684,-1.376 l -1.568,-2.222 1.817,-1.818 2.319,1.638 c 0.621,-0.349 1.281,-0.625 1.982,-0.784 l 0.401,-2.326 H 55.261 L 54.248,41.899 C 54.03,41.83 53.812,41.774 53.595,41.691 52.814,41.404 52.088,41.045 51.394,40.641 l -4.645,3.273 -3.939,-3.951 3.39,-4.797 c -0.487,-0.929 -0.871,-1.907 -1.133,-2.927 l -5.585,-0.961 v -4.586 l -2.812,0.485 c -0.045,0.135 -0.056,0.273 -0.107,0.404 -0.184,0.498 -0.422,0.954 -0.681,1.396 l 2.156,3.055 -2.596,2.588 -3.165,-2.232 c -0.588,0.304 -1.195,0.553 -1.835,0.722 l -0.64,3.663 -3.645,0.003 -0.664,-3.822 C 25.365,32.909 25.23,32.899 25.102,32.85 24.601,32.663 24.138,32.421 23.693,32.159 l -3.065,2.16 -2.585,-2.592 2.242,-3.176 C 19.988,27.97 19.757,27.359 19.588,26.729 L 15.9,26.097 V 22.43 l 3.801,-0.653 c 0.042,-0.135 0.073,-0.266 0.121,-0.397 0.184,-0.501 0.426,-0.96 0.685,-1.403 l -2.16,-3.055 2.582,-2.589 3.179,2.236 c 0.588,-0.305 1.199,-0.557 1.842,-0.727 l 0.639,-3.666 h 3.646 L 30.9,16 c 0.132,0.042 0.267,0.052 0.394,0.1 0.502,0.187 0.961,0.43 1.407,0.688 l 3.055,-2.153 2.595,2.589 -2.246,3.172 c 0.305,0.584 0.553,1.192 0.719,1.832 l 3.663,0.629 v 2.665 l 4.797,-0.823 c 0.069,-0.218 0.124,-0.435 0.207,-0.653 0.287,-0.785 0.65,-1.521 1.062,-2.219 l -3.296,-4.627 3.964,-3.955 4.807,3.398 c 0.93,-0.485 1.908,-0.868 2.928,-1.131 l 0.943,-5.588 h 5.587 l 1.013,5.802 c 0.218,0.065 0.436,0.125 0.653,0.204 0.777,0.287 1.507,0.65 2.197,1.055 l 4.647,-3.273 3.933,3.947 -3.39,4.814 c 0.48,0.922 0.863,1.897 1.126,2.91 l 5.596,0.964 v 5.589 l -5.806,0.999 c -0.069,0.218 -0.125,0.436 -0.204,0.65 -0.29,0.781 -0.653,1.51 -1.062,2.205 z"
     inkscape:connector-curvature="0" /></g>
<metadata
   id="metadata10"><rdf:RDF><cc:Work><dc:format>image/svg+xml</dc:format><dc:type
         rdf:resource="http://purl.org/dc/dcmitype/StillImage" /><cc:license
         rdf:resource="http://creativecommons.org/publicdomain/zero/1.0/" /><dc:publisher><cc:Agent
           rdf:about="http://openclipart.org/"><dc:title>Openclipart</dc:title></cc:Agent></dc:publisher></cc:Work><cc:License
       rdf:about="http://creativecommons.org/licenses/publicdomain/"><cc:permits
         rdf:resource="http://creativecommons.org/ns#Reproduction" /><cc:permits
         rdf:resource="http://creativecommons.org/ns#Distribution" /><cc:permits
         rdf:resource="http://creativecommons.org/ns#DerivativeWorks" /></cc:License></rdf:RDF></metadata></svg>