<?xml version="1.0" encoding="UTF-8" standalone="no"?>
<!-- Created with Inkscape (http://www.inkscape.org/) -->

<svg
   xmlns:dc="http://purl.org/dc/elements/1.1/"
   xmlns:cc="http://creativecommons.org/ns#"
   xmlns:rdf="http://www.w3.org/1999/02/22-rdf-syntax-ns#"
   xmlns:svg="http://www.w3.org/2000/svg"
   xmlns="http://www.w3.org/2000/svg"
   xmlns:sodipodi="http://sodipodi.sourceforge.net/DTD/sodipodi-0.dtd"
   xmlns:inkscape="http://www.inkscape.org/namespaces/inkscape"
   width="38.284248mm"
   height="56.343842mm"
   viewBox="0 0 135.65285 199.64353"
   id="svg4898"
   version="1.1"
   inkscape:version="0.92.3 (2405546, 2018-03-11)"
   sodipodi:docname="microscope_04.svg"
   inkscape:export-filename="/home/ale/src/cpp-manual/introduction-to-programming-with-cpp/images/microscope.png"
   inkscape:export-xdpi="132.69"
   inkscape:export-ydpi="132.69">
  <defs
     id="defs4900" />
  <sodipodi:namedview
     id="base"
     pagecolor="#ffffff"
     bordercolor="#666666"
     borderopacity="1.0"
     inkscape:pageopacity="0.0"
     inkscape:pageshadow="2"
     inkscape:zoom="1.6919373"
     inkscape:cx="-5.6055237"
     inkscape:cy="-29.858943"
     inkscape:document-units="px"
     inkscape:current-layer="layer1"
     showgrid="false"
     fit-margin-top="0"
     fit-margin-left="0"
     fit-margin-right="0"
     fit-margin-bottom="0"
     inkscape:window-width="2078"
     inkscape:window-height="1776"
     inkscape:window-x="0"
     inkscape:window-y="22"
     inkscape:window-maximized="0" />
  <metadata
     id="metadata4903">
    <rdf:RDF>
      <cc:Work
         rdf:about="">
        <dc:format>image/svg+xml</dc:format>
        <dc:type
           rdf:resource="http://purl.org/dc/dcmitype/StillImage" />
        <dc:title />
      </cc:Work>
    </rdf:RDF>
  </metadata>
  <g
     inkscape:label="Layer 1"
     inkscape:groupmode="layer"
     id="layer1"
     transform="translate(-175.03074,-175.39761)">
    <path
       inkscape:connector-curvature="0"
       id="path4186-1"
       d="m 294.74974,370.34565 c 0.16478,-4.04421 0.0288,-4.74448 -0.98242,-5.04895 -2.89342,-0.8714 -39.52094,-10.88638 -39.81449,-10.88638 -0.1807,0 -0.32859,-0.26695 -0.32859,-0.59321 0,-0.32627 1.89437,-1.47971 4.20973,-2.5632 12.69633,-5.94132 23.04834,-16.5669 28.19104,-28.93594 3.20314,-7.70415 2.14318,-7.14519 13.94085,-7.35153 l 10.31121,-0.18035 0.20329,-2.45605 0.20323,-2.45604 h -25.62194 -25.62194 l 0.20323,2.45604 0.20329,2.45605 8.02309,0.1839 c 9.3056,0.21329 9.16322,0.0627 5.92942,6.27388 -2.78051,5.34057 -13.15662,15.72259 -18.53713,18.54775 -7.48623,3.93079 -12.28063,5.11656 -20.6308,5.10246 -8.74595,-0.0147 -14.94796,-1.47532 -22.9231,-5.39838 -6.96647,-3.42686 -15.27989,-11.72712 -18.53098,-18.50162 -3.84813,-8.01842 -5.31737,-14.26393 -5.31233,-22.58164 0.007,-12.34967 3.97578,-22.10008 12.7664,-31.36848 8.32351,-8.77589 18.02798,-13.64274 27.43955,-13.76113 l 4.90116,-0.0616 1.17202,2.29231 c 0.6446,1.26077 3.22325,6.7132 5.73039,12.1165 6.42135,13.83905 5.96989,13.12973 8.2197,12.91401 6.24072,-0.59841 5.62127,-0.94784 8.45555,4.76953 1.42857,2.88176 2.68934,5.37061 2.80179,5.53076 0.35177,0.50116 7.3722,-3.18936 7.3722,-3.87545 0,-0.35817 -1.10522,-2.88903 -2.45604,-5.62413 -2.39187,-4.84302 -2.42285,-4.99727 -1.18474,-5.90535 0.69929,-0.51284 1.61733,-0.93244 2.04016,-0.93244 1.08839,0 5.03012,9.31376 4.51258,10.66251 -0.37725,0.98308 -0.18299,1.02416 1.77058,0.37442 3.85593,-1.28246 3.91972,-1.69574 1.14832,-7.43473 -1.39163,-2.88176 -2.53609,-5.71058 -2.54323,-6.28625 -0.007,-0.59627 1.12808,-1.5612 2.63852,-2.24231 1.4583,-0.6576 2.7923,-1.4235 2.96442,-1.70203 0.28693,-0.46427 -2.7458,-7.22452 -12.74551,-28.41123 -2.04023,-4.32265 -6.20732,-13.24446 -9.26022,-19.82626 -5.99328,-12.92085 -5.69023,-12.58838 -9.96585,-10.93421 -0.89263,0.34532 -1.40958,-0.17832 -2.37942,-2.41018 -0.68147,-1.56826 -2.91235,-6.38808 -4.95748,-10.71073 -2.04507,-4.32264 -5.05854,-10.69704 -6.69656,-14.16532 -2.43627,-5.15849 -3.19981,-6.24802 -4.19618,-5.98747 -2.76655,0.72347 -2.71586,1.7812 0.40535,8.45665 1.66035,3.55112 4.24366,9.10911 5.74067,12.35109 1.49694,3.24198 3.66259,7.81024 4.81247,10.15167 l 2.09066,4.25714 -1.35961,1.16769 c -0.74781,0.64222 -1.67188,1.0636 -2.05351,0.93639 -0.38164,-0.12721 -4.22434,-7.72608 -8.53938,-16.88639 -4.31498,-9.16031 -7.91699,-16.75793 -8.00436,-16.88363 -0.20402,-0.29335 -11.38172,4.98287 -11.38172,5.3725 0,0.33394 4.48232,10.07227 12.34534,26.82171 l 3.32261,7.07772 -2.2669,1.33752 c -1.24682,0.73565 -2.26696,1.42644 -2.26696,1.5351 0,0.10867 1.20798,2.80577 2.68436,5.99356 1.47638,3.18779 3.39209,7.32441 4.25715,9.19248 0.86505,1.86808 1.57278,3.67813 1.57278,4.02235 0,0.34422 -2.13676,1.10549 -4.74836,1.6917 -23.45623,5.26513 -41.05803,23.4892 -45.09879,46.69318 -1.09087,6.26401 -0.38065,20.25694 1.3228,26.06451 4.79289,16.34009 16.25648,29.54713 31.93366,36.79045 2.70813,1.25122 4.79092,2.40786 4.6285,2.57031 -0.24194,0.24196 -28.37501,8.3719 -37.32249,10.78551 l -2.45604,0.66253 v 4.45022 c 0,2.44761 0.19805,4.64824 0.44005,4.89029 l 119.08757,0.10571 z m -29.85892,-99.3139 c -0.34201,-0.43009 -2.47059,-4.76077 -4.73015,-9.62375 -2.25956,-4.86297 -5.83354,-12.48735 -7.94214,-16.94306 -2.10859,-4.45571 -3.83385,-8.1814 -3.83385,-8.27931 0,-0.17309 -7.66352,-16.42407 -9.54027,-20.23075 -1.03875,-2.10682 -0.51125,-3.28431 1.73416,-3.87151 1.09723,-0.28692 1.63422,0.33728 3.17898,3.69517 1.02237,2.22222 3.66056,7.83334 5.86275,12.46917 2.20219,4.63582 4.00394,8.50574 4.00394,8.59982 0,0.0941 1.72389,3.81665 3.83091,8.27236 8.75296,18.51002 11.23285,23.93523 11.23285,24.57368 0,1.15686 -3.07851,2.24178 -3.79718,1.33818 z"
       style="fill:#000000;fill-opacity:1"
       sodipodi:nodetypes="ssssssscccccccssssssssscsssssssssssscsssssssssssscscsssscssssssssscscsccsssssssssssss" />
  </g>
</svg>
